<svg xmlns="http://www.w3.org/2000/svg" width="20" height="12" viewBox="0 0 20 12" fill="none">
    <path d="M1.33743 10.9613C1.66532 11.2872 2.10886 11.4702 2.57118 11.4702C3.03351 11.4702 3.47705 11.2872 3.80493 10.9613L10.0874 4.76627L16.2824 10.9613C16.6103 11.2872 17.0539 11.4702 17.5162 11.4702C17.9785 11.4702 18.422 11.2872 18.7499 10.9613C18.914 10.7986 19.0441 10.605 19.133 10.3918C19.2218 10.1785 19.2676 9.94979 19.2676 9.71877C19.2676 9.48775 19.2218 9.25901 19.133 9.04576C19.0441 8.8325 18.914 8.63895 18.7499 8.47627L11.3299 1.05627C11.1672 0.892242 10.9737 0.762053 10.7604 0.673208C10.5472 0.584363 10.3185 0.53862 10.0874 0.53862C9.85641 0.53862 9.62768 0.584363 9.41442 0.673208C9.20117 0.762053 9.00762 0.892242 8.84493 1.05627L1.33743 8.47627C1.17341 8.63895 1.04322 8.8325 0.954372 9.04576C0.865526 9.25901 0.819782 9.48775 0.819782 9.71877C0.819782 9.94979 0.865526 10.1785 0.954372 10.3918C1.04322 10.605 1.17341 10.7986 1.33743 10.9613Z" fill="#8991A2"/>
</svg>
