<svg xmlns="http://www.w3.org/2000/svg" width="42" height="42" viewBox="0 0 42 42" fill="none">
    <path d="M12.2495 25.9525C12.5774 26.2784 13.021 26.4614 13.4833 26.4614C13.9456 26.4614 14.3892 26.2784 14.717 25.9525L20.9995 19.7575L27.1945 25.9525C27.5224 26.2784 27.966 26.4614 28.4283 26.4614C28.8906 26.4614 29.3342 26.2784 29.662 25.9525C29.8261 25.7898 29.9563 25.5962 30.0451 25.383C30.1339 25.1697 30.1797 24.941 30.1797 24.71C30.1797 24.479 30.1339 24.2502 30.0451 24.037C29.9563 23.8237 29.8261 23.6302 29.662 23.4675L22.242 16.0475C22.0794 15.8835 21.8858 15.7533 21.6726 15.6644C21.4593 15.5756 21.2306 15.5298 20.9995 15.5298C20.7685 15.5298 20.5398 15.5756 20.3265 15.6644C20.1133 15.7533 19.9197 15.8835 19.757 16.0475L12.2495 23.4675C12.0855 23.6302 11.9553 23.8237 11.8665 24.037C11.7776 24.2502 11.7319 24.479 11.7319 24.71C11.7319 24.941 11.7776 25.1697 11.8665 25.383C11.9553 25.5962 12.0855 25.7898 12.2495 25.9525Z" fill="#8991A2"/>
</svg>
